<mxfile host="app.diagrams.net" modified="2023-09-21T10:26:05.726Z" agent="Mozilla/5.0 (Macintosh; Intel Mac OS X 10_15_7) AppleWebKit/605.1.15 (KHTML, like Gecko) Version/16.6 Safari/605.1.15" etag="VAhQjloP22G34Ff5jmzG" version="21.8.0" type="device">
  <diagram id="C5RBs43oDa-KdzZeNtuy" name="Page-1">
    <mxGraphModel dx="1111" dy="769" grid="1" gridSize="10" guides="1" tooltips="1" connect="1" arrows="1" fold="1" page="1" pageScale="1" pageWidth="827" pageHeight="1169" math="0" shadow="0">
      <root>
        <mxCell id="WIyWlLk6GJQsqaUBKTNV-0" />
        <mxCell id="WIyWlLk6GJQsqaUBKTNV-1" parent="WIyWlLk6GJQsqaUBKTNV-0" />
        <mxCell id="KWt6AgFuIi7b4dDtCCOZ-53" style="edgeStyle=orthogonalEdgeStyle;rounded=0;orthogonalLoop=1;jettySize=auto;html=1;entryX=0.5;entryY=0;entryDx=0;entryDy=0;" edge="1" parent="WIyWlLk6GJQsqaUBKTNV-1" source="KWt6AgFuIi7b4dDtCCOZ-0" target="KWt6AgFuIi7b4dDtCCOZ-50">
          <mxGeometry relative="1" as="geometry" />
        </mxCell>
        <mxCell id="KWt6AgFuIi7b4dDtCCOZ-0" value="Начало" style="ellipse;whiteSpace=wrap;html=1;" vertex="1" parent="WIyWlLk6GJQsqaUBKTNV-1">
          <mxGeometry x="40" width="120" height="40" as="geometry" />
        </mxCell>
        <mxCell id="KWt6AgFuIi7b4dDtCCOZ-55" style="edgeStyle=orthogonalEdgeStyle;rounded=0;orthogonalLoop=1;jettySize=auto;html=1;entryX=0.5;entryY=0;entryDx=0;entryDy=0;" edge="1" parent="WIyWlLk6GJQsqaUBKTNV-1" source="KWt6AgFuIi7b4dDtCCOZ-1" target="KWt6AgFuIi7b4dDtCCOZ-2">
          <mxGeometry relative="1" as="geometry" />
        </mxCell>
        <mxCell id="KWt6AgFuIi7b4dDtCCOZ-1" value="Ввод&lt;br&gt;n" style="shape=parallelogram;perimeter=parallelogramPerimeter;whiteSpace=wrap;html=1;fixedSize=1;" vertex="1" parent="WIyWlLk6GJQsqaUBKTNV-1">
          <mxGeometry x="40" y="107" width="120" height="40" as="geometry" />
        </mxCell>
        <mxCell id="KWt6AgFuIi7b4dDtCCOZ-72" value="да" style="edgeStyle=orthogonalEdgeStyle;rounded=0;orthogonalLoop=1;jettySize=auto;html=1;" edge="1" parent="WIyWlLk6GJQsqaUBKTNV-1" source="KWt6AgFuIi7b4dDtCCOZ-2">
          <mxGeometry relative="1" as="geometry">
            <mxPoint x="200" y="200" as="targetPoint" />
          </mxGeometry>
        </mxCell>
        <mxCell id="KWt6AgFuIi7b4dDtCCOZ-2" value="n&amp;gt;100" style="rhombus;whiteSpace=wrap;html=1;" vertex="1" parent="WIyWlLk6GJQsqaUBKTNV-1">
          <mxGeometry x="60" y="160" width="80" height="80" as="geometry" />
        </mxCell>
        <mxCell id="KWt6AgFuIi7b4dDtCCOZ-75" style="edgeStyle=orthogonalEdgeStyle;rounded=0;orthogonalLoop=1;jettySize=auto;html=1;entryX=0;entryY=0.5;entryDx=0;entryDy=0;" edge="1" parent="WIyWlLk6GJQsqaUBKTNV-1" source="KWt6AgFuIi7b4dDtCCOZ-3" target="KWt6AgFuIi7b4dDtCCOZ-74">
          <mxGeometry relative="1" as="geometry" />
        </mxCell>
        <mxCell id="KWt6AgFuIi7b4dDtCCOZ-82" value="да" style="edgeLabel;html=1;align=center;verticalAlign=middle;resizable=0;points=[];" vertex="1" connectable="0" parent="KWt6AgFuIi7b4dDtCCOZ-75">
          <mxGeometry x="-0.0778" y="-1" relative="1" as="geometry">
            <mxPoint y="-1" as="offset" />
          </mxGeometry>
        </mxCell>
        <mxCell id="KWt6AgFuIi7b4dDtCCOZ-3" value="n&amp;lt;0" style="rhombus;whiteSpace=wrap;html=1;" vertex="1" parent="WIyWlLk6GJQsqaUBKTNV-1">
          <mxGeometry x="60" y="270" width="80" height="80" as="geometry" />
        </mxCell>
        <mxCell id="KWt6AgFuIi7b4dDtCCOZ-5" value="" style="endArrow=classic;html=1;rounded=0;exitX=0.5;exitY=1;exitDx=0;exitDy=0;entryX=0.5;entryY=0;entryDx=0;entryDy=0;" edge="1" parent="WIyWlLk6GJQsqaUBKTNV-1" source="KWt6AgFuIi7b4dDtCCOZ-2" target="KWt6AgFuIi7b4dDtCCOZ-3">
          <mxGeometry width="50" height="50" relative="1" as="geometry">
            <mxPoint x="100" y="239" as="sourcePoint" />
            <mxPoint x="100" y="240" as="targetPoint" />
            <mxPoint as="offset" />
          </mxGeometry>
        </mxCell>
        <mxCell id="KWt6AgFuIi7b4dDtCCOZ-42" value="нет" style="edgeLabel;html=1;align=center;verticalAlign=middle;resizable=0;points=[];" vertex="1" connectable="0" parent="KWt6AgFuIi7b4dDtCCOZ-5">
          <mxGeometry x="-0.1339" relative="1" as="geometry">
            <mxPoint as="offset" />
          </mxGeometry>
        </mxCell>
        <mxCell id="KWt6AgFuIi7b4dDtCCOZ-8" value="" style="endArrow=classic;html=1;rounded=0;exitX=0.5;exitY=1;exitDx=0;exitDy=0;" edge="1" parent="WIyWlLk6GJQsqaUBKTNV-1" source="KWt6AgFuIi7b4dDtCCOZ-9">
          <mxGeometry width="50" height="50" relative="1" as="geometry">
            <mxPoint x="280" y="450" as="sourcePoint" />
            <mxPoint x="100" y="440" as="targetPoint" />
          </mxGeometry>
        </mxCell>
        <mxCell id="KWt6AgFuIi7b4dDtCCOZ-39" style="edgeStyle=orthogonalEdgeStyle;rounded=0;orthogonalLoop=1;jettySize=auto;html=1;entryX=0.5;entryY=0;entryDx=0;entryDy=0;" edge="1" parent="WIyWlLk6GJQsqaUBKTNV-1" source="KWt6AgFuIi7b4dDtCCOZ-10" target="KWt6AgFuIi7b4dDtCCOZ-13">
          <mxGeometry relative="1" as="geometry" />
        </mxCell>
        <mxCell id="KWt6AgFuIi7b4dDtCCOZ-43" value="да" style="edgeLabel;html=1;align=center;verticalAlign=middle;resizable=0;points=[];" vertex="1" connectable="0" parent="KWt6AgFuIi7b4dDtCCOZ-39">
          <mxGeometry x="-0.0643" relative="1" as="geometry">
            <mxPoint y="-4" as="offset" />
          </mxGeometry>
        </mxCell>
        <mxCell id="KWt6AgFuIi7b4dDtCCOZ-44" style="edgeStyle=orthogonalEdgeStyle;rounded=0;orthogonalLoop=1;jettySize=auto;html=1;entryX=0;entryY=0.5;entryDx=0;entryDy=0;" edge="1" parent="WIyWlLk6GJQsqaUBKTNV-1" source="KWt6AgFuIi7b4dDtCCOZ-10" target="KWt6AgFuIi7b4dDtCCOZ-45">
          <mxGeometry relative="1" as="geometry">
            <mxPoint x="180" y="520" as="targetPoint" />
          </mxGeometry>
        </mxCell>
        <mxCell id="KWt6AgFuIi7b4dDtCCOZ-46" value="нет" style="edgeLabel;html=1;align=center;verticalAlign=middle;resizable=0;points=[];" vertex="1" connectable="0" parent="KWt6AgFuIi7b4dDtCCOZ-44">
          <mxGeometry x="-0.1" y="-1" relative="1" as="geometry">
            <mxPoint y="-1" as="offset" />
          </mxGeometry>
        </mxCell>
        <mxCell id="KWt6AgFuIi7b4dDtCCOZ-10" value="i&amp;lt;n" style="rhombus;whiteSpace=wrap;html=1;" vertex="1" parent="WIyWlLk6GJQsqaUBKTNV-1">
          <mxGeometry x="60" y="510" width="80" height="80" as="geometry" />
        </mxCell>
        <mxCell id="KWt6AgFuIi7b4dDtCCOZ-11" value="" style="endArrow=classic;html=1;rounded=0;exitX=0.5;exitY=1;exitDx=0;exitDy=0;entryX=0.5;entryY=0;entryDx=0;entryDy=0;" edge="1" parent="WIyWlLk6GJQsqaUBKTNV-1" source="KWt6AgFuIi7b4dDtCCOZ-3" target="KWt6AgFuIi7b4dDtCCOZ-48">
          <mxGeometry width="50" height="50" relative="1" as="geometry">
            <mxPoint x="100" y="360" as="sourcePoint" />
            <mxPoint x="190" y="310" as="targetPoint" />
          </mxGeometry>
        </mxCell>
        <mxCell id="KWt6AgFuIi7b4dDtCCOZ-41" value="нет" style="edgeLabel;html=1;align=center;verticalAlign=middle;resizable=0;points=[];" vertex="1" connectable="0" parent="KWt6AgFuIi7b4dDtCCOZ-11">
          <mxGeometry x="-0.0143" y="1" relative="1" as="geometry">
            <mxPoint x="-1" y="-3" as="offset" />
          </mxGeometry>
        </mxCell>
        <mxCell id="KWt6AgFuIi7b4dDtCCOZ-12" style="edgeStyle=orthogonalEdgeStyle;rounded=0;orthogonalLoop=1;jettySize=auto;html=1;exitX=0.5;exitY=1;exitDx=0;exitDy=0;" edge="1" parent="WIyWlLk6GJQsqaUBKTNV-1" source="KWt6AgFuIi7b4dDtCCOZ-9" target="KWt6AgFuIi7b4dDtCCOZ-10">
          <mxGeometry relative="1" as="geometry" />
        </mxCell>
        <mxCell id="KWt6AgFuIi7b4dDtCCOZ-9" value="i=0" style="rounded=0;whiteSpace=wrap;html=1;" vertex="1" parent="WIyWlLk6GJQsqaUBKTNV-1">
          <mxGeometry x="40" y="440" width="120" height="30" as="geometry" />
        </mxCell>
        <mxCell id="KWt6AgFuIi7b4dDtCCOZ-40" style="edgeStyle=orthogonalEdgeStyle;rounded=0;orthogonalLoop=1;jettySize=auto;html=1;entryX=0.5;entryY=0;entryDx=0;entryDy=0;" edge="1" parent="WIyWlLk6GJQsqaUBKTNV-1" source="KWt6AgFuIi7b4dDtCCOZ-13" target="KWt6AgFuIi7b4dDtCCOZ-14">
          <mxGeometry relative="1" as="geometry" />
        </mxCell>
        <mxCell id="KWt6AgFuIi7b4dDtCCOZ-13" value="Ввод&lt;br&gt;Arr[i]" style="shape=parallelogram;perimeter=parallelogramPerimeter;whiteSpace=wrap;html=1;fixedSize=1;" vertex="1" parent="WIyWlLk6GJQsqaUBKTNV-1">
          <mxGeometry x="40" y="620" width="120" height="40" as="geometry" />
        </mxCell>
        <mxCell id="KWt6AgFuIi7b4dDtCCOZ-16" style="edgeStyle=orthogonalEdgeStyle;rounded=0;orthogonalLoop=1;jettySize=auto;html=1;entryX=0.5;entryY=0;entryDx=0;entryDy=0;" edge="1" parent="WIyWlLk6GJQsqaUBKTNV-1" source="KWt6AgFuIi7b4dDtCCOZ-14" target="KWt6AgFuIi7b4dDtCCOZ-15">
          <mxGeometry relative="1" as="geometry" />
        </mxCell>
        <mxCell id="KWt6AgFuIi7b4dDtCCOZ-33" value="да" style="edgeLabel;html=1;align=center;verticalAlign=middle;resizable=0;points=[];" vertex="1" connectable="0" parent="KWt6AgFuIi7b4dDtCCOZ-16">
          <mxGeometry x="-0.1" y="1" relative="1" as="geometry">
            <mxPoint y="-6" as="offset" />
          </mxGeometry>
        </mxCell>
        <mxCell id="KWt6AgFuIi7b4dDtCCOZ-51" style="edgeStyle=orthogonalEdgeStyle;rounded=0;orthogonalLoop=1;jettySize=auto;html=1;" edge="1" parent="WIyWlLk6GJQsqaUBKTNV-1" source="KWt6AgFuIi7b4dDtCCOZ-14">
          <mxGeometry relative="1" as="geometry">
            <mxPoint x="100" y="860" as="targetPoint" />
            <Array as="points">
              <mxPoint x="231" y="730" />
            </Array>
          </mxGeometry>
        </mxCell>
        <mxCell id="KWt6AgFuIi7b4dDtCCOZ-52" value="нет" style="edgeLabel;html=1;align=center;verticalAlign=middle;resizable=0;points=[];" vertex="1" connectable="0" parent="KWt6AgFuIi7b4dDtCCOZ-51">
          <mxGeometry x="-0.7712" y="-1" relative="1" as="geometry">
            <mxPoint y="-1" as="offset" />
          </mxGeometry>
        </mxCell>
        <mxCell id="KWt6AgFuIi7b4dDtCCOZ-14" value="Arr[i]&amp;gt;0" style="rhombus;whiteSpace=wrap;html=1;" vertex="1" parent="WIyWlLk6GJQsqaUBKTNV-1">
          <mxGeometry x="60" y="690" width="80" height="80" as="geometry" />
        </mxCell>
        <mxCell id="KWt6AgFuIi7b4dDtCCOZ-27" style="edgeStyle=orthogonalEdgeStyle;rounded=0;orthogonalLoop=1;jettySize=auto;html=1;" edge="1" parent="WIyWlLk6GJQsqaUBKTNV-1" source="KWt6AgFuIi7b4dDtCCOZ-15">
          <mxGeometry relative="1" as="geometry">
            <mxPoint x="100" y="880" as="targetPoint" />
          </mxGeometry>
        </mxCell>
        <mxCell id="KWt6AgFuIi7b4dDtCCOZ-15" value="Arr[i]=Arr[i]^3" style="whiteSpace=wrap;html=1;" vertex="1" parent="WIyWlLk6GJQsqaUBKTNV-1">
          <mxGeometry x="40" y="810" width="120" height="40" as="geometry" />
        </mxCell>
        <mxCell id="KWt6AgFuIi7b4dDtCCOZ-22" style="rounded=0;orthogonalLoop=1;jettySize=auto;html=1;elbow=vertical;edgeStyle=orthogonalEdgeStyle;" edge="1" parent="WIyWlLk6GJQsqaUBKTNV-1">
          <mxGeometry relative="1" as="geometry">
            <mxPoint x="100" y="1080" as="targetPoint" />
            <mxPoint x="139" y="920" as="sourcePoint" />
            <Array as="points">
              <mxPoint x="230" y="920" />
            </Array>
          </mxGeometry>
        </mxCell>
        <mxCell id="KWt6AgFuIi7b4dDtCCOZ-30" value="нет" style="edgeLabel;html=1;align=center;verticalAlign=middle;resizable=0;points=[];" vertex="1" connectable="0" parent="KWt6AgFuIi7b4dDtCCOZ-22">
          <mxGeometry x="-0.7924" y="2" relative="1" as="geometry">
            <mxPoint as="offset" />
          </mxGeometry>
        </mxCell>
        <mxCell id="KWt6AgFuIi7b4dDtCCOZ-24" style="edgeStyle=orthogonalEdgeStyle;rounded=0;orthogonalLoop=1;jettySize=auto;html=1;entryX=0.5;entryY=0;entryDx=0;entryDy=0;" edge="1" parent="WIyWlLk6GJQsqaUBKTNV-1" source="KWt6AgFuIi7b4dDtCCOZ-18" target="KWt6AgFuIi7b4dDtCCOZ-20">
          <mxGeometry relative="1" as="geometry" />
        </mxCell>
        <mxCell id="KWt6AgFuIi7b4dDtCCOZ-32" value="да&lt;br&gt;" style="edgeLabel;html=1;align=center;verticalAlign=middle;resizable=0;points=[];" vertex="1" connectable="0" parent="KWt6AgFuIi7b4dDtCCOZ-24">
          <mxGeometry x="0.15" y="1" relative="1" as="geometry">
            <mxPoint x="-1" y="-5" as="offset" />
          </mxGeometry>
        </mxCell>
        <mxCell id="KWt6AgFuIi7b4dDtCCOZ-18" value="Arr[i]&amp;lt;0" style="rhombus;whiteSpace=wrap;html=1;" vertex="1" parent="WIyWlLk6GJQsqaUBKTNV-1">
          <mxGeometry x="60" y="880" width="80" height="80" as="geometry" />
        </mxCell>
        <mxCell id="KWt6AgFuIi7b4dDtCCOZ-28" style="edgeStyle=orthogonalEdgeStyle;rounded=0;orthogonalLoop=1;jettySize=auto;html=1;" edge="1" parent="WIyWlLk6GJQsqaUBKTNV-1" source="KWt6AgFuIi7b4dDtCCOZ-20">
          <mxGeometry relative="1" as="geometry">
            <mxPoint x="100" y="1100" as="targetPoint" />
          </mxGeometry>
        </mxCell>
        <mxCell id="KWt6AgFuIi7b4dDtCCOZ-20" value="Arr[i]=Arr[i]^2" style="whiteSpace=wrap;html=1;" vertex="1" parent="WIyWlLk6GJQsqaUBKTNV-1">
          <mxGeometry x="40" y="1000" width="120" height="40" as="geometry" />
        </mxCell>
        <mxCell id="KWt6AgFuIi7b4dDtCCOZ-37" value="i=i+1" style="rounded=0;whiteSpace=wrap;html=1;" vertex="1" parent="WIyWlLk6GJQsqaUBKTNV-1">
          <mxGeometry x="40" y="1100" width="120" height="30" as="geometry" />
        </mxCell>
        <mxCell id="KWt6AgFuIi7b4dDtCCOZ-38" value="" style="endArrow=classic;html=1;rounded=0;exitX=0.5;exitY=1;exitDx=0;exitDy=0;" edge="1" parent="WIyWlLk6GJQsqaUBKTNV-1" source="KWt6AgFuIi7b4dDtCCOZ-37">
          <mxGeometry width="50" height="50" relative="1" as="geometry">
            <mxPoint x="250" y="1050" as="sourcePoint" />
            <mxPoint x="100" y="490" as="targetPoint" />
            <Array as="points">
              <mxPoint x="100" y="1160" />
              <mxPoint x="10" y="1160" />
              <mxPoint x="10" y="490" />
            </Array>
          </mxGeometry>
        </mxCell>
        <mxCell id="KWt6AgFuIi7b4dDtCCOZ-45" value="1" style="ellipse;whiteSpace=wrap;html=1;" vertex="1" parent="WIyWlLk6GJQsqaUBKTNV-1">
          <mxGeometry x="200" y="525" width="50" height="50" as="geometry" />
        </mxCell>
        <mxCell id="KWt6AgFuIi7b4dDtCCOZ-57" style="edgeStyle=orthogonalEdgeStyle;rounded=0;orthogonalLoop=1;jettySize=auto;html=1;entryX=0.5;entryY=0;entryDx=0;entryDy=0;" edge="1" parent="WIyWlLk6GJQsqaUBKTNV-1" source="KWt6AgFuIi7b4dDtCCOZ-47" target="KWt6AgFuIi7b4dDtCCOZ-56">
          <mxGeometry relative="1" as="geometry" />
        </mxCell>
        <mxCell id="KWt6AgFuIi7b4dDtCCOZ-47" value="1" style="ellipse;whiteSpace=wrap;html=1;" vertex="1" parent="WIyWlLk6GJQsqaUBKTNV-1">
          <mxGeometry x="389" width="50" height="50" as="geometry" />
        </mxCell>
        <mxCell id="KWt6AgFuIi7b4dDtCCOZ-49" style="edgeStyle=orthogonalEdgeStyle;rounded=0;orthogonalLoop=1;jettySize=auto;html=1;entryX=0.5;entryY=0;entryDx=0;entryDy=0;" edge="1" parent="WIyWlLk6GJQsqaUBKTNV-1" source="KWt6AgFuIi7b4dDtCCOZ-48" target="KWt6AgFuIi7b4dDtCCOZ-9">
          <mxGeometry relative="1" as="geometry" />
        </mxCell>
        <mxCell id="KWt6AgFuIi7b4dDtCCOZ-48" value="Arr[n]" style="whiteSpace=wrap;html=1;" vertex="1" parent="WIyWlLk6GJQsqaUBKTNV-1">
          <mxGeometry x="40" y="390" width="120" height="30" as="geometry" />
        </mxCell>
        <mxCell id="KWt6AgFuIi7b4dDtCCOZ-54" style="edgeStyle=orthogonalEdgeStyle;rounded=0;orthogonalLoop=1;jettySize=auto;html=1;entryX=0.5;entryY=0;entryDx=0;entryDy=0;" edge="1" parent="WIyWlLk6GJQsqaUBKTNV-1" source="KWt6AgFuIi7b4dDtCCOZ-50" target="KWt6AgFuIi7b4dDtCCOZ-1">
          <mxGeometry relative="1" as="geometry" />
        </mxCell>
        <mxCell id="KWt6AgFuIi7b4dDtCCOZ-50" value="n" style="whiteSpace=wrap;html=1;" vertex="1" parent="WIyWlLk6GJQsqaUBKTNV-1">
          <mxGeometry x="40" y="60" width="120" height="30" as="geometry" />
        </mxCell>
        <mxCell id="KWt6AgFuIi7b4dDtCCOZ-59" style="edgeStyle=orthogonalEdgeStyle;rounded=0;orthogonalLoop=1;jettySize=auto;html=1;" edge="1" parent="WIyWlLk6GJQsqaUBKTNV-1" source="KWt6AgFuIi7b4dDtCCOZ-56" target="KWt6AgFuIi7b4dDtCCOZ-58">
          <mxGeometry relative="1" as="geometry" />
        </mxCell>
        <mxCell id="KWt6AgFuIi7b4dDtCCOZ-56" value="i=0" style="rounded=0;whiteSpace=wrap;html=1;" vertex="1" parent="WIyWlLk6GJQsqaUBKTNV-1">
          <mxGeometry x="354" y="80" width="120" height="30" as="geometry" />
        </mxCell>
        <mxCell id="KWt6AgFuIi7b4dDtCCOZ-62" style="edgeStyle=orthogonalEdgeStyle;rounded=0;orthogonalLoop=1;jettySize=auto;html=1;" edge="1" parent="WIyWlLk6GJQsqaUBKTNV-1" source="KWt6AgFuIi7b4dDtCCOZ-58" target="KWt6AgFuIi7b4dDtCCOZ-60">
          <mxGeometry relative="1" as="geometry" />
        </mxCell>
        <mxCell id="KWt6AgFuIi7b4dDtCCOZ-69" value="да" style="edgeLabel;html=1;align=center;verticalAlign=middle;resizable=0;points=[];" vertex="1" connectable="0" parent="KWt6AgFuIi7b4dDtCCOZ-62">
          <mxGeometry x="0.1737" relative="1" as="geometry">
            <mxPoint as="offset" />
          </mxGeometry>
        </mxCell>
        <mxCell id="KWt6AgFuIi7b4dDtCCOZ-67" style="edgeStyle=orthogonalEdgeStyle;rounded=0;orthogonalLoop=1;jettySize=auto;html=1;entryX=0.5;entryY=0;entryDx=0;entryDy=0;" edge="1" parent="WIyWlLk6GJQsqaUBKTNV-1" source="KWt6AgFuIi7b4dDtCCOZ-58" target="KWt6AgFuIi7b4dDtCCOZ-71">
          <mxGeometry relative="1" as="geometry">
            <mxPoint x="414" y="460" as="targetPoint" />
            <Array as="points">
              <mxPoint x="511" y="187" />
              <mxPoint x="511" y="420" />
              <mxPoint x="414" y="420" />
            </Array>
          </mxGeometry>
        </mxCell>
        <mxCell id="KWt6AgFuIi7b4dDtCCOZ-68" value="нет" style="edgeLabel;html=1;align=center;verticalAlign=middle;resizable=0;points=[];" vertex="1" connectable="0" parent="KWt6AgFuIi7b4dDtCCOZ-67">
          <mxGeometry x="-0.8583" y="2" relative="1" as="geometry">
            <mxPoint as="offset" />
          </mxGeometry>
        </mxCell>
        <mxCell id="KWt6AgFuIi7b4dDtCCOZ-58" value="i&amp;lt;n" style="rhombus;whiteSpace=wrap;html=1;" vertex="1" parent="WIyWlLk6GJQsqaUBKTNV-1">
          <mxGeometry x="374" y="147" width="80" height="80" as="geometry" />
        </mxCell>
        <mxCell id="KWt6AgFuIi7b4dDtCCOZ-63" style="edgeStyle=orthogonalEdgeStyle;rounded=0;orthogonalLoop=1;jettySize=auto;html=1;entryX=0.5;entryY=0;entryDx=0;entryDy=0;" edge="1" parent="WIyWlLk6GJQsqaUBKTNV-1" source="KWt6AgFuIi7b4dDtCCOZ-60" target="KWt6AgFuIi7b4dDtCCOZ-61">
          <mxGeometry relative="1" as="geometry" />
        </mxCell>
        <mxCell id="KWt6AgFuIi7b4dDtCCOZ-60" value="Вывод&lt;br&gt;Arr[i]" style="shape=parallelogram;perimeter=parallelogramPerimeter;whiteSpace=wrap;html=1;fixedSize=1;" vertex="1" parent="WIyWlLk6GJQsqaUBKTNV-1">
          <mxGeometry x="354" y="260" width="120" height="40" as="geometry" />
        </mxCell>
        <mxCell id="KWt6AgFuIi7b4dDtCCOZ-65" style="edgeStyle=orthogonalEdgeStyle;rounded=0;orthogonalLoop=1;jettySize=auto;html=1;exitX=0.5;exitY=1;exitDx=0;exitDy=0;" edge="1" parent="WIyWlLk6GJQsqaUBKTNV-1" source="KWt6AgFuIi7b4dDtCCOZ-61">
          <mxGeometry relative="1" as="geometry">
            <mxPoint x="414" y="130" as="targetPoint" />
            <Array as="points">
              <mxPoint x="414" y="400" />
              <mxPoint x="334" y="400" />
              <mxPoint x="334" y="130" />
              <mxPoint x="410" y="130" />
            </Array>
          </mxGeometry>
        </mxCell>
        <mxCell id="KWt6AgFuIi7b4dDtCCOZ-61" value="i=i+1" style="rounded=0;whiteSpace=wrap;html=1;" vertex="1" parent="WIyWlLk6GJQsqaUBKTNV-1">
          <mxGeometry x="354" y="350" width="120" height="30" as="geometry" />
        </mxCell>
        <mxCell id="KWt6AgFuIi7b4dDtCCOZ-71" value="Конец" style="ellipse;whiteSpace=wrap;html=1;" vertex="1" parent="WIyWlLk6GJQsqaUBKTNV-1">
          <mxGeometry x="354" y="545" width="120" height="40" as="geometry" />
        </mxCell>
        <mxCell id="KWt6AgFuIi7b4dDtCCOZ-73" value="2" style="ellipse;whiteSpace=wrap;html=1;" vertex="1" parent="WIyWlLk6GJQsqaUBKTNV-1">
          <mxGeometry x="200" y="175" width="50" height="50" as="geometry" />
        </mxCell>
        <mxCell id="KWt6AgFuIi7b4dDtCCOZ-74" value="2" style="ellipse;whiteSpace=wrap;html=1;" vertex="1" parent="WIyWlLk6GJQsqaUBKTNV-1">
          <mxGeometry x="200" y="285" width="50" height="50" as="geometry" />
        </mxCell>
        <mxCell id="KWt6AgFuIi7b4dDtCCOZ-77" style="edgeStyle=orthogonalEdgeStyle;rounded=0;orthogonalLoop=1;jettySize=auto;html=1;entryX=0.5;entryY=0;entryDx=0;entryDy=0;" edge="1" parent="WIyWlLk6GJQsqaUBKTNV-1" source="KWt6AgFuIi7b4dDtCCOZ-76" target="KWt6AgFuIi7b4dDtCCOZ-78">
          <mxGeometry relative="1" as="geometry">
            <mxPoint x="665" y="240" as="targetPoint" />
          </mxGeometry>
        </mxCell>
        <mxCell id="KWt6AgFuIi7b4dDtCCOZ-76" value="2" style="ellipse;whiteSpace=wrap;html=1;" vertex="1" parent="WIyWlLk6GJQsqaUBKTNV-1">
          <mxGeometry x="640" width="50" height="50" as="geometry" />
        </mxCell>
        <mxCell id="KWt6AgFuIi7b4dDtCCOZ-81" style="edgeStyle=orthogonalEdgeStyle;rounded=0;orthogonalLoop=1;jettySize=auto;html=1;" edge="1" parent="WIyWlLk6GJQsqaUBKTNV-1">
          <mxGeometry relative="1" as="geometry">
            <mxPoint x="414" y="480" as="targetPoint" />
            <mxPoint x="659.0000000000001" y="280" as="sourcePoint" />
            <Array as="points">
              <mxPoint x="659" y="480" />
            </Array>
          </mxGeometry>
        </mxCell>
        <mxCell id="KWt6AgFuIi7b4dDtCCOZ-78" value="Вывод&lt;br&gt;Uncorrect" style="shape=parallelogram;perimeter=parallelogramPerimeter;whiteSpace=wrap;html=1;fixedSize=1;" vertex="1" parent="WIyWlLk6GJQsqaUBKTNV-1">
          <mxGeometry x="605" y="240" width="120" height="40" as="geometry" />
        </mxCell>
      </root>
    </mxGraphModel>
  </diagram>
</mxfile>
